<?xml version="1.0" standalone="no"?>
<!DOCTYPE svg PUBLIC "-//W3C//DTD SVG 20010904//EN"
 "http://www.w3.org/TR/2001/REC-SVG-20010904/DTD/svg10.dtd">
<svg version="1.0" xmlns="http://www.w3.org/2000/svg"
 width="299.000000pt" height="168.000000pt" viewBox="0 0 299.000000 168.000000"
 preserveAspectRatio="xMidYMid meet">
<metadata>
Created by potrace 1.13, written by Peter Selinger 2001-2015
</metadata>
<g transform="translate(0.000000,168.000000) scale(0.100000,-0.100000)"
fill="#000000" stroke="none">
<path d="M0 840 l0 -840 566 0 567 0 -7 31 c-3 17 -6 53 -6 79 0 46 0 46 -30
42 -32 -5 -41 13 -18 36 17 17 36 15 41 -6 3 -9 5 3 6 28 1 53 20 125 29 115
4 -3 12 -20 17 -36 12 -34 28 -38 35 -8 5 19 7 17 23 -17 15 -31 16 -40 5 -49
-7 -5 -14 -34 -16 -65 -4 -77 -12 -76 -12 3 0 54 -3 67 -16 67 -12 0 -15 -8
-10 -37 3 -21 5 -71 6 -110 l0 -73 45 0 46 0 -2 103 c0 56 -5 107 -11 114 -6
8 -6 19 1 32 6 11 11 30 11 42 0 28 12 17 25 -22 10 -30 11 -29 24 30 7 34 17
61 20 61 17 0 31 -102 31 -225 l0 -135 45 0 45 0 -1 172 c-1 102 -5 178 -11
186 -7 8 -7 27 2 59 l14 46 12 -36 c13 -37 16 -97 5 -97 -3 0 -5 -74 -3 -165
l3 -165 39 0 40 0 0 166 c0 128 -3 165 -12 162 -7 -3 -16 -24 -19 -49 l-6 -44
-1 42 c-1 23 -6 45 -12 48 -14 8 -13 42 1 51 7 4 19 -3 29 -16 l17 -23 13 54
13 54 18 -52 c9 -29 15 -62 12 -74 -4 -14 -2 -20 5 -15 6 3 13 20 17 36 8 37
20 32 30 -12 6 -26 9 -29 12 -13 24 106 30 112 50 42 l11 -42 1 35 c1 19 7 55
15 80 l13 44 17 -51 c9 -28 16 -55 15 -59 -1 -5 0 -25 1 -44 l2 -35 9 33 c5
17 13 32 17 32 16 0 32 -112 32 -228 l0 -122 50 0 c47 0 50 1 45 23 -2 12 -6
122 -7 244 -2 123 -7 223 -12 223 -9 0 1 66 14 89 20 36 30 -73 30 -321 l0
-258 292 0 291 0 -19 22 c-10 12 -31 35 -47 51 -15 16 -24 33 -21 39 4 7 2 8
-5 4 -7 -5 -20 3 -32 18 -11 14 -47 37 -79 52 -33 15 -60 33 -60 40 0 8 12 21
26 31 21 14 31 15 56 5 16 -6 37 -8 45 -5 11 4 14 2 9 -5 -5 -8 1 -12 16 -12
24 0 118 -88 118 -110 0 -6 5 -8 12 -4 6 4 8 3 5 -3 -4 -5 5 -25 19 -44 14
-19 30 -44 35 -56 5 -13 14 -23 20 -23 7 0 8 7 4 18 -4 9 -14 40 -23 67 -8 28
-21 57 -28 65 -6 8 -14 24 -18 35 -3 11 -31 47 -62 80 -67 73 -225 288 -243
333 -7 17 -25 38 -40 45 -20 9 -27 21 -29 50 -3 31 0 37 17 37 13 0 21 -8 23
-22 3 -25 34 -36 51 -19 7 7 -1 22 -26 51 -40 44 -41 47 -27 84 25 66 130 51
130 -20 0 -19 -5 -24 -25 -24 -18 0 -25 5 -25 20 0 13 -7 20 -20 20 -29 0 -25
-21 10 -52 21 -18 30 -35 30 -57 0 -37 96 -169 160 -220 36 -29 52 -35 98 -36
42 -1 60 3 74 17 22 22 36 22 85 4 21 -8 62 -17 92 -21 30 -3 69 -12 88 -20
l33 -14 0 630 0 629 -1495 0 -1495 0 0 -840z m2124 159 c14 -11 26 -29 26 -39
0 -26 -28 -33 -40 -10 -13 24 -45 26 -54 4 -9 -23 -7 -69 4 -99 14 -38 39 -43
64 -13 24 29 46 26 46 -6 0 -49 -76 -78 -116 -45 -26 22 -44 73 -44 129 0 41
5 56 25 75 30 30 54 31 89 4z m-825 2 c12 -8 60 -192 61 -233 0 -31 -30 -20
-36 12 -5 25 -11 30 -35 30 -22 0 -30 -6 -35 -25 -4 -16 -13 -25 -26 -25 -15
0 -19 5 -15 18 2 9 17 65 33 125 16 59 31 107 34 107 3 0 11 -4 19 -9z m271
-11 c5 0 11 -18 15 -40 4 -22 10 -40 14 -40 3 0 15 16 25 35 11 21 27 35 38
35 25 0 23 -10 -17 -78 -23 -38 -38 -78 -42 -111 -5 -42 -9 -51 -25 -51 -18 0
-19 5 -14 58 5 43 2 73 -14 122 -24 79 -24 84 -4 76 9 -3 19 -6 24 -6z m288
-28 c3 -18 -2 -22 -22 -22 l-26 0 0 -100 c0 -92 -2 -100 -19 -100 -17 0 -20
11 -26 95 -7 91 -8 95 -31 95 -19 0 -24 5 -24 25 0 23 4 24 63 27 81 5 81 5
85 -20z m-981 4 c-3 -8 1 -22 10 -33 14 -17 14 -17 9 1 -5 16 -4 17 8 7 8 -7
12 -19 9 -27 -3 -8 2 -23 11 -33 9 -10 13 -21 10 -24 -4 -4 -23 16 -42 43 -19
28 -40 50 -46 50 -8 0 -8 -2 0 -8 6 -4 42 -55 80 -113 59 -90 66 -105 49 -107
-11 0 -29 8 -40 18 -31 30 -65 17 -62 -24 2 -25 -2 -32 -19 -34 -17 -2 -21 2
-21 29 0 19 -6 35 -16 41 -9 5 -17 16 -17 25 0 14 2 14 14 -3 14 -18 15 -17
12 11 -2 17 -5 53 -6 80 -3 49 -3 49 -10 15 -6 -29 -7 -26 -4 15 3 37 9 54 26
67 28 21 52 23 45 4z m169 -20 c1 0 15 -28 32 -61 l31 -60 1 68 c0 60 2 67 20
67 18 0 20 -7 20 -57 0 -32 3 -88 7 -125 6 -67 6 -68 -18 -68 -21 0 -31 12
-60 72 l-36 72 5 -75 c4 -71 3 -75 -17 -75 -28 0 -37 48 -33 167 3 87 4 90 25
83 12 -3 23 -7 23 -8z"/>
</g>
</svg>
